HIERARCHY
ROOT root
{
	OFFSET 0.000000 0.000000 0.000000
	CHANNELS 6 Xposition Yposition Zposition Zrotation Yrotation Xrotation
	JOINT lhip
	{
		OFFSET 0.058581 -0.082280 -0.017664
		CHANNELS 3 Zrotation Yrotation Xrotation
		JOINT lknee
		{
			OFFSET 0.043451 -0.386469 0.008037
			CHANNELS 3 Zrotation Yrotation Xrotation
			JOINT lankle
			{
				OFFSET -0.014790 -0.426874 -0.037428
				CHANNELS 3 Zrotation Yrotation Xrotation
				JOINT ltoe
				{
					OFFSET 0.041054 -0.060286 0.122042
					CHANNELS 3 Zrotation Yrotation Xrotation
					End Site
					{
						OFFSET 0.000000 0.000000 0.000000
					}
				}
			}
		}
	}
	JOINT rhip
	{
		OFFSET -0.060310 -0.090513 -0.013543
		CHANNELS 3 Zrotation Yrotation Xrotation
		JOINT rknee
		{
			OFFSET -0.043257 -0.383688 -0.004843
			CHANNELS 3 Zrotation Yrotation Xrotation
			JOINT rankle
			{
				OFFSET 0.019056 -0.420046 -0.034562
				CHANNELS 3 Zrotation Yrotation Xrotation
				JOINT rtoe
				{
					OFFSET -0.034840 -0.062106 0.130323
					CHANNELS 3 Zrotation Yrotation Xrotation
					End Site
					{
						OFFSET 0.000000 0.000000 0.000000
					}
				}
			}
		}
	}
	JOINT lowerback
	{
		OFFSET 0.004439 0.124404 -0.038385
		CHANNELS 3 Zrotation Yrotation Xrotation
		JOINT upperback
		{
			OFFSET 0.004488 0.137956 0.026820
			CHANNELS 3 Zrotation Yrotation Xrotation
			JOINT chest
			{
				OFFSET -0.002265 0.056032 0.002855
				CHANNELS 3 Zrotation Yrotation Xrotation
				JOINT lowerneck
				{
					OFFSET -0.013390 0.211636 -0.033468
					CHANNELS 3 Zrotation Yrotation Xrotation
					JOINT upperneck
					{
						OFFSET 0.010113 0.088937 0.050410
						CHANNELS 3 Zrotation Yrotation Xrotation
						End Site
						{
							OFFSET 0.000000 0.000000 0.000000
						}
					}
				}
				JOINT lclavicle
				{
					OFFSET 0.071702 0.114000 -0.018898
					CHANNELS 3 Zrotation Yrotation Xrotation
					JOINT lshoulder
					{
						OFFSET 0.122921 0.045205 -0.019046
						CHANNELS 3 Zrotation Yrotation Xrotation
						JOINT lelbow
						{
							OFFSET 0.255332 -0.015649 -0.022946
							CHANNELS 3 Zrotation Yrotation Xrotation
							JOINT lwrist
							{
								OFFSET 0.265709 0.012698 -0.007375
								CHANNELS 3 Zrotation Yrotation Xrotation
								End Site
								{
									OFFSET 0.000000 0.000000 0.000000
								}
							}
						}
					}
				}
				JOINT rclavicle
				{
					OFFSET -0.082954 0.112472 -0.023707
					CHANNELS 3 Zrotation Yrotation Xrotation
					JOINT rshoulder
					{
						OFFSET -0.113228 0.046853 -0.008472
						CHANNELS 3 Zrotation Yrotation Xrotation
						JOINT relbow
						{
							OFFSET -0.260127 -0.014369 -0.031269
							CHANNELS 3 Zrotation Yrotation Xrotation
							JOINT rwrist
							{
								OFFSET -0.269108 0.006794 -0.006027
								CHANNELS 3 Zrotation Yrotation Xrotation
								End Site
								{
									OFFSET 0.000000 0.000000 0.000000
								}
							}
						}
					}
				}
			}
		}
	}
}
MOTION
Frames: 14
Frame Time: 0.033333
0.474830 0.330073 0.684724 94.848448 0.300723 178.663567 4.226327 -2.295829 -13.529287 -4.519027 -4.938516 5.900537 -5.263747 8.839503 -0.383889 0.000000 -0.000000 0.000000 0.097089 2.180793 -21.843015 5.796505 1.291038 34.441773 13.824471 1.519100 16.946236 0.000000 -0.000000 0.000000 -2.751827 -4.441935 -4.213466 2.256474 -14.767046 -3.250199 1.471164 1.746345 1.817481 -21.267219 19.665855 23.155646 9.473683 7.742305 -24.905213 44.138108 -16.406203 -25.771770 13.265193 -20.252982 -41.477138 7.547124 3.164064 -48.579760 1.581337 -15.145508 -7.533929 -24.547469 11.218112 -5.869800 68.114899 4.915331 12.123395 -17.486816 71.361803 7.007646 -3.435098 11.798607 -19.695848 
0.475419 0.324826 0.684552 94.236882 0.527771 178.632275 4.797896 -1.670804 -10.765403 -5.982358 -7.480818 11.336720 -5.973237 8.252892 -0.454758 0.000000 -0.000000 0.000000 0.381058 2.885304 -23.430686 4.678632 1.526902 28.558973 13.190074 0.049160 16.878729 0.000000 -0.000000 0.000000 -2.458242 -7.000455 -3.980319 1.793755 -15.782200 -4.854463 0.942166 0.823661 2.951310 -23.714820 20.031278 22.847413 9.223210 9.047035 -24.953564 42.540772 -13.687445 -24.903583 12.036305 -22.329689 -41.326266 7.830599 2.534682 -45.872938 3.334573 -15.142954 -9.008464 -24.808238 7.536948 -5.088281 69.342927 0.980858 13.917174 -1.232970 70.782850 23.687572 -3.876627 11.278274 -21.531410 
0.475466 0.320528 0.684341 93.637996 0.339816 178.756324 5.068899 -1.329761 -8.565496 -6.993240 -8.952105 17.160590 -6.346165 8.259001 -1.034067 0.000000 -0.000000 0.000000 0.761051 3.428766 -24.272992 2.648682 1.410781 19.713581 11.180499 -2.671658 14.165944 0.000000 -0.000000 0.000000 -2.267724 -8.746172 -4.014794 1.479523 -16.294768 -6.664912 0.555769 -0.334465 4.401498 -25.911534 20.015928 23.004587 8.462412 10.180528 -25.073346 40.841359 -10.967045 -23.145515 10.917274 -25.079993 -41.225775 8.557715 1.965995 -42.828056 6.079975 -14.859101 -11.820818 -25.525437 2.692852 -4.088532 68.404660 -3.210467 15.606940 15.714628 70.613648 41.050113 -7.073877 10.828612 -25.692229 
0.474317 0.315956 0.683612 92.800361 -0.181912 178.883440 4.705507 -1.341106 -7.389639 -7.925978 -10.223955 23.875523 -6.129044 8.747094 -0.962941 0.000000 -0.000000 0.000000 1.052510 3.714728 -24.612259 0.864410 1.509162 11.014304 8.455093 -5.583364 8.304606 0.000000 -0.000000 0.000000 -2.544253 -9.663985 -4.201055 1.085540 -16.443863 -8.106742 0.074002 -1.804641 5.873155 -26.966286 19.741119 22.688842 7.869470 11.063912 -24.621106 39.654516 -9.252490 -21.047773 11.367732 -26.866226 -41.085779 8.349095 2.137150 -41.255452 8.758239 -14.327827 -14.662692 -26.896814 -2.033604 -3.349331 65.395718 -7.262766 17.395235 33.778968 68.880235 58.861717 -10.388702 10.435127 -30.961620 
0.472604 0.311743 0.682279 91.584162 -0.733320 178.564243 3.277898 -1.811910 -6.883784 -9.283399 -12.074460 31.409226 -5.513401 9.393622 -0.574950 0.000000 -0.000000 0.000000 1.113650 3.649251 -24.752133 0.219740 1.648258 6.450285 6.545705 -7.593171 1.591790 0.000000 -0.000000 0.000000 -3.279045 -10.204155 -3.996192 0.374471 -16.521304 -9.421788 -0.522798 -3.079220 7.228076 -27.100129 19.485798 22.692582 7.534174 11.983874 -24.217741 38.936451 -9.027860 -19.343466 13.153345 -27.131631 -40.828093 7.314550 2.924405 -41.246043 10.289976 -14.155912 -16.008888 -28.412149 -4.904992 -2.834024 61.086239 -10.699122 18.819444 46.639255 64.510024 70.088239 -12.681747 11.191046 -35.967252 
0.470960 0.308846 0.681049 90.515380 -1.112081 177.656015 1.772821 -2.416418 -6.576466 -10.959060 -13.329769 37.540159 -5.378349 9.751765 0.058580 0.000000 -0.000000 0.000000 1.334545 3.874181 -24.222408 0.868937 2.493905 6.976345 6.324718 -8.001191 -0.613667 0.000000 -0.000000 0.000000 -3.799837 -10.662615 -3.389976 -0.509182 -16.676531 -10.071629 -1.134584 -3.863145 7.766257 -27.352233 19.058645 23.216200 7.213441 13.227385 -23.890999 38.457550 -10.021532 -18.577275 14.757403 -26.167764 -40.214214 6.286196 3.393886 -41.725829 10.836933 -14.853992 -15.029678 -29.661762 -5.688887 -2.921534 56.315103 -13.159528 19.523373 51.520531 58.249959 73.031050 -12.228341 14.037803 -38.039432 
0.469624 0.307351 0.679651 89.675263 -1.265117 176.670550 0.850016 -2.390785 -6.616842 -11.590897 -13.434512 39.336610 -5.423482 10.116967 0.895970 0.000000 -0.000000 0.000000 1.957180 4.012137 -23.196913 2.305462 3.950971 11.060695 7.395481 -6.858606 1.616349 0.000000 -0.000000 0.000000 -4.120145 -11.128096 -3.036280 -1.323679 -16.902321 -9.817908 -1.522821 -4.060792 7.352086 -28.044693 18.373815 24.032109 7.127569 14.271290 -23.764487 38.247831 -11.075548 -18.736089 14.932996 -25.480750 -39.452552 6.103846 3.051935 -41.489171 9.662716 -15.848480 -13.548012 -30.751039 -5.371840 -3.491496 52.160288 -14.307033 19.042978 49.903870 51.156181 70.025148 -7.339634 17.413238 -36.407226 
0.468258 0.306605 0.679001 88.969387 -1.246925 176.179558 0.712304 -2.028413 -7.596428 -10.873915 -12.154774 36.443166 -4.789801 11.043849 1.067664 0.000000 -0.000000 0.000000 2.721426 4.045850 -22.023628 3.924682 5.312352 16.331961 9.184896 -4.923011 4.974923 0.000000 -0.000000 0.000000 -4.374992 -11.493488 -3.274952 -1.920479 -17.123431 -9.221479 -1.733586 -3.921556 6.457763 -28.579908 17.702351 24.842474 7.203746 14.786176 -23.901598 38.372479 -11.554251 -19.588164 14.063949 -25.774138 -38.650441 6.605581 3.006312 -40.395616 5.945734 -16.399984 -10.989467 -31.905669 -4.942905 -4.285206 49.197378 -14.391186 17.283325 44.324673 43.929001 62.132616 1.698028 18.934704 -34.895572 
0.466536 0.306380 0.679299 88.335309 -0.806539 176.211494 1.187689 -1.266247 -9.249651 -9.194904 -9.108054 29.482508 -3.936055 12.468512 0.930983 0.000000 -0.000000 0.000000 3.424725 3.806669 -20.935331 5.234964 6.049905 21.385731 11.101741 -3.487003 9.140414 0.000000 -0.000000 0.000000 -4.698157 -11.483468 -3.865654 -2.200836 -17.212651 -8.363007 -1.599473 -3.725076 5.248365 -28.962112 17.070179 25.089203 7.228190 15.142050 -23.995225 38.769900 -11.673783 -20.671071 12.832086 -26.253079 -38.393454 7.672362 3.563157 -39.180016 0.887415 -16.135701 -7.299478 -33.117285 -4.798145 -5.311697 46.804646 -13.831474 14.044582 37.185468 37.376429 51.190369 13.838349 20.104013 -34.875456 
0.464265 0.308451 0.679878 87.807269 -0.472764 176.358859 1.581458 -0.336979 -10.613701 -7.344065 -5.399785 19.512226 -3.806708 13.867488 0.837141 0.000000 -0.000000 0.000000 3.571532 3.303307 -19.866090 6.253430 5.900725 25.947321 12.732887 -2.946202 12.740597 0.000000 -0.000000 0.000000 -4.591394 -11.524884 -4.120939 -2.311057 -17.341190 -7.743466 -1.566071 -3.735719 4.033642 -29.137371 16.439152 24.625818 6.983665 15.236149 -24.263798 39.176647 -11.900511 -20.818858 12.583857 -25.364129 -38.802768 8.723499 4.295504 -39.294147 -3.083485 -15.891522 -5.462303 -34.196311 -4.797504 -6.602098 44.289785 -12.308356 10.462851 29.854452 32.280676 39.919255 23.809608 21.560258 -35.089022 
0.461450 0.313545 0.680751 87.415045 -0.729671 176.383843 1.256517 0.121056 -11.452688 -5.602303 -3.964065 9.013276 -4.834745 14.393276 0.196586 0.000000 -0.000000 0.000000 3.034364 2.414965 -18.984524 7.556073 5.560501 30.292855 14.346478 -2.310431 14.450733 0.000000 -0.000000 0.000000 -3.912747 -11.880058 -3.934414 -2.406846 -17.815413 -7.418663 -1.827093 -3.948455 3.029993 -28.759281 16.050756 23.761923 6.557144 14.797172 -24.631476 39.597964 -12.497457 -20.348772 13.308793 -22.890908 -39.140662 9.083377 5.241234 -40.740995 -4.738621 -16.354589 -5.648770 -35.083817 -4.295823 -8.118014 41.290590 -9.633934 6.951556 22.943149 27.482329 28.956401 29.143026 22.369165 -34.902181 
0.458153 0.318773 0.682253 87.107285 -0.716014 176.237225 0.687127 0.463430 -12.375430 -3.689188 -5.150962 1.929149 -5.459996 14.065833 -1.486999 0.000000 -0.000000 0.000000 2.493214 1.636058 -18.842302 8.956538 5.515061 34.516427 15.945377 -1.594541 15.852645 0.000000 -0.000000 0.000000 -3.471400 -12.171061 -3.612345 -2.254432 -18.247005 -7.181929 -1.972143 -4.070829 2.521966 -27.779839 16.132447 23.275280 5.961365 13.921523 -25.025370 40.109191 -12.834954 -20.054186 13.614259 -20.674445 -39.325111 9.291908 6.873267 -41.271907 -5.537977 -16.873627 -5.510019 -35.622190 -3.674344 -9.557587 37.680326 -6.038469 3.374597 16.509873 23.766043 20.216987 31.929347 21.921267 -33.126162 
0.455077 0.320742 0.682499 86.764382 0.672565 175.610924 1.106686 0.642820 -12.864305 -2.907334 -5.696259 0.186482 -5.006921 14.082152 -3.218722 0.000000 -0.000000 0.000000 2.489978 1.901354 -18.974804 9.796999 5.964298 37.198835 17.353465 -1.438303 17.969216 0.000000 -0.000000 0.000000 -3.821809 -11.942455 -3.137519 -1.951479 -18.025420 -6.862588 -1.768218 -3.893318 2.401439 -26.500836 16.456635 23.816266 5.241315 13.268072 -25.421380 40.538179 -12.989661 -19.895176 13.122014 -19.603089 -39.361876 9.479704 9.081984 -40.273831 -6.364814 -16.659704 -4.344879 -36.121406 -2.953919 -10.809200 33.994909 -1.867902 0.023484 10.752811 21.367305 13.680300 32.905894 20.972934 -31.416094 
0.452629 0.321076 0.680869 86.366820 2.656368 174.649563 2.269229 0.787160 -12.521895 -3.721617 -4.958517 2.934400 -5.023945 13.796712 -3.866158 0.000000 -0.000000 0.000000 2.737013 2.650447 -19.080987 9.698015 6.579041 36.847519 17.815837 -1.841810 19.549047 0.000000 -0.000000 0.000000 -4.301954 -11.421905 -2.716176 -1.845786 -17.410656 -6.514199 -1.475013 -3.594673 2.361928 -25.609478 16.633440 24.900970 4.551882 13.182216 -25.630431 40.444426 -13.297290 -19.698768 11.952605 -19.017609 -39.131506 9.170657 10.389965 -39.777321 -7.320480 -16.282057 -4.404793 -36.660288 -2.049463 -12.119009 30.080446 2.452513 -3.140620 5.812499 20.633038 8.186230 32.660423 19.780418 -30.004041 
